<svg width="21" height="22" viewBox="0 0 21 22" fill="none" xmlns="http://www.w3.org/2000/svg">
<path d="M19.3512 0.698151H1.66165C0.88056 0.698151 0.237305 1.38735 0.237305 2.21439V19.812C0.237305 20.6391 0.88056 21.2823 1.66165 21.2823H19.3512C20.1323 21.2823 20.8215 20.6391 20.8215 19.812V2.21439C20.8215 1.38735 20.1323 0.698151 19.3512 0.698151ZM6.44012 18.3417H3.40763V8.55505H6.44012V18.3417ZM4.92388 7.17665C3.91305 7.17665 3.13195 6.39555 3.13195 5.43067C3.13195 4.46579 3.91305 3.63874 4.92388 3.63874C5.88876 3.63874 6.66985 4.46579 6.66985 5.43067C6.66985 6.39555 5.88876 7.17665 4.92388 7.17665ZM17.8809 18.3417H14.8024V13.5632C14.8024 12.4605 14.8024 10.9902 13.2402 10.9902C11.6321 10.9902 11.4024 12.2308 11.4024 13.5173V18.3417H8.36988V8.55505H11.2645V9.88751H11.3105C11.724 9.10641 12.7348 8.27937 14.2051 8.27937C17.2836 8.27937 17.8809 10.347 17.8809 12.9659V18.3417Z" fill="white"/>
</svg>
