<svg width="200" height="60" viewBox="0 0 92 27" fill="none" xmlns="http://www.w3.org/2000/svg">
<g clip-path="url(#clip0_205_7670)">
<path d="M84.6504 9.3351C84.4273 9.3351 84.2103 9.38118 84.0183 9.48984L77.9418 12.9989C77.5486 13.2256 77.3096 13.6534 77.3096 14.1087V21.1142C77.3096 21.5691 77.5486 21.9964 77.9418 22.2236L79.5287 23.1397C80.2998 23.5196 80.584 23.5137 80.9349 23.5137C82.0764 23.5137 82.7281 22.821 82.7281 21.6173V14.702C82.7281 14.6043 82.6435 14.5344 82.5476 14.5344H81.7864C81.6889 14.5344 81.6058 14.6043 81.6058 14.702V21.6173C81.6058 22.1508 81.05 22.6874 80.1481 22.2365L78.4966 21.2689C78.4381 21.2372 78.3933 21.1811 78.3933 21.1142V14.1085C78.3933 14.0422 78.4376 13.9746 78.4966 13.9409L84.5602 10.4448C84.5876 10.4288 84.6187 10.4204 84.6504 10.4204C84.6822 10.4204 84.7133 10.4288 84.7407 10.4448L90.8045 13.941C90.8622 13.9758 90.9077 14.0402 90.9077 14.1089V21.1144C90.9077 21.1812 90.874 21.2497 90.8174 21.282L84.7407 24.7782C84.6887 24.8092 84.617 24.8092 84.5602 24.7782L82.9991 23.8494C82.9753 23.8365 82.9487 23.8297 82.9217 23.8297C82.8947 23.8297 82.8681 23.8365 82.8443 23.8494C82.4135 24.0936 82.3324 24.1219 81.9282 24.2621C81.8287 24.2969 81.6776 24.3509 81.9799 24.5204L84.0183 25.7199C84.2105 25.8308 84.4287 25.8887 84.6505 25.8878C84.8724 25.8892 85.0906 25.8313 85.2826 25.7201L91.3593 22.2237C91.7525 21.9951 91.9913 21.5693 91.9913 21.1144V14.1087C91.9913 13.6536 91.7525 13.2265 91.3593 12.9993L85.2826 9.4902C85.0922 9.38136 84.8738 9.33528 84.6505 9.33528L84.6504 9.3351Z" fill="#FFFFFF"/>
<path d="M86.2758 14.3409C84.5455 14.3409 83.515 15.0773 83.515 16.302C83.515 17.6303 84.5378 17.9954 86.1985 18.1597C88.1853 18.3542 88.34 18.646 88.34 19.037C88.34 19.7154 87.7992 20.0046 86.5211 20.0046C84.915 20.0046 84.5622 19.6037 84.444 18.8048C84.43 18.7191 84.3638 18.6499 84.2762 18.6499H83.4892C83.3923 18.6499 83.3086 18.7335 83.3086 18.8306C83.3086 19.8533 83.8648 21.0625 86.5211 21.0625C88.4439 21.0625 89.5529 20.3078 89.5529 18.9854C89.5529 17.6746 88.6571 17.3226 86.7919 17.0761C84.9073 16.8267 84.7277 16.7046 84.7277 16.2633C84.7277 15.8989 84.8801 15.4116 86.2758 15.4116C87.5227 15.4116 87.9836 15.6805 88.1724 16.5213C88.1889 16.6002 88.2585 16.6631 88.34 16.6631H89.1272C89.1756 16.6631 89.2226 16.6334 89.2561 16.5986C89.2891 16.5615 89.3124 16.5197 89.3078 16.4697C89.1858 15.0219 88.2204 14.3409 86.2758 14.3409Z" fill="#FFFFFF"/>
<path d="M48.9275 0.149391C48.8595 0.149436 48.7928 0.167172 48.7338 0.200853C48.6752 0.235149 48.6265 0.284124 48.5926 0.342953C48.5587 0.401781 48.5407 0.468433 48.5403 0.536342V10.4059C48.5403 10.5028 48.4953 10.5896 48.4114 10.6381C48.3703 10.6621 48.3235 10.6747 48.2759 10.6747C48.2283 10.6747 48.1816 10.6621 48.1405 10.6381L46.5278 9.70932C46.4101 9.64126 46.2766 9.60542 46.1407 9.60542C46.0048 9.60542 45.8713 9.64126 45.7537 9.70932L39.3159 13.4248C39.0753 13.5638 38.9289 13.8308 38.9289 14.1087V21.5399C38.9289 21.8174 39.0754 22.0717 39.3159 22.2107L45.7537 25.9263C45.8713 25.9946 46.0048 26.0305 46.1407 26.0305C46.2767 26.0305 46.4102 25.9946 46.5278 25.9263L52.9655 22.2107C53.0834 22.1428 53.1813 22.0451 53.2492 21.9273C53.3172 21.8095 53.3529 21.6759 53.3527 21.5399V3.01351C53.3525 2.87434 53.3154 2.73769 53.2451 2.61755C53.1749 2.4974 53.074 2.39804 52.9528 2.32962L49.1209 0.187942C49.0609 0.154411 48.9942 0.148494 48.9275 0.149391ZM7.51395 9.42547C7.39131 9.43032 7.27583 9.45183 7.16573 9.51567L0.727775 13.2313C0.609845 13.2991 0.511934 13.3968 0.443975 13.5146C0.376016 13.6324 0.340429 13.7661 0.340824 13.9021L0.353734 23.8752C0.353734 24.0138 0.425279 24.1427 0.54721 24.2105C0.605666 24.2456 0.672578 24.2642 0.740775 24.2642C0.808972 24.2642 0.875884 24.2456 0.934341 24.2105L4.75311 22.0174C4.995 21.8736 5.15298 21.6236 5.15298 21.3464V16.689C5.15298 16.411 5.29911 16.1561 5.54011 16.018L7.16555 15.0763C7.28308 15.0079 7.41674 14.9723 7.55268 14.973C7.68537 14.973 7.82165 15.0061 7.93964 15.0763L9.56526 16.018C9.6833 16.0857 9.78131 16.1834 9.84931 16.3013C9.91731 16.4191 9.95288 16.5529 9.9524 16.689V21.3462C9.9524 21.6234 10.112 21.8752 10.3523 22.0172L14.171 24.2105C14.2295 24.2456 14.2964 24.2642 14.3646 24.2642C14.4328 24.2642 14.4997 24.2456 14.5582 24.2105C14.617 24.1765 14.6659 24.1275 14.6998 24.0687C14.7338 24.0098 14.7518 23.943 14.7518 23.875L14.7644 13.9021C14.7651 13.7661 14.7297 13.6322 14.6617 13.5143C14.5937 13.3965 14.4956 13.2988 14.3774 13.2313L7.93964 9.51567C7.8308 9.45183 7.71496 9.43049 7.59142 9.42547H7.51395ZM65.3638 9.51567C65.2293 9.51567 65.0975 9.54974 64.9768 9.61895L58.539 13.3346C58.4212 13.4024 58.3233 13.5002 58.2553 13.618C58.1873 13.7358 58.1516 13.8694 58.1519 14.0054V21.4366C58.1519 21.7161 58.3093 21.9693 58.5518 22.1076L64.9381 25.7458C65.1739 25.8802 65.4619 25.8905 65.6993 25.7583L69.5697 23.6039C69.6925 23.5358 69.7755 23.4085 69.7761 23.2686C69.7767 23.2005 69.7591 23.1334 69.7251 23.0744C69.6911 23.0154 69.6419 22.9666 69.5826 22.9331L63.1061 19.2174C62.9849 19.1482 62.8997 19.0082 62.8997 18.869V16.547C62.8997 16.408 62.9858 16.2807 63.1061 16.2115L65.1187 15.0503C65.1775 15.0162 65.2442 14.9983 65.3122 14.9983C65.3802 14.9983 65.447 15.0162 65.5058 15.0503L67.5182 16.2115C67.5771 16.2453 67.6261 16.2942 67.6601 16.3531C67.6941 16.412 67.712 16.4788 67.7118 16.5468V18.3788C67.7117 18.4468 67.7295 18.5136 67.7634 18.5725C67.7974 18.6314 67.8464 18.6802 67.9053 18.7141C68.026 18.7839 68.1719 18.784 68.2923 18.7141L72.1499 16.4697C72.2676 16.4016 72.3653 16.3038 72.4333 16.186C72.5012 16.0682 72.537 15.9347 72.5371 15.7987V14.0056C72.5371 13.7286 72.39 13.4738 72.1499 13.3346L65.7509 9.61895C65.6333 9.5509 65.4997 9.51532 65.3638 9.51585V9.51567ZM46.1148 15.0633C46.1485 15.0633 46.188 15.0716 46.2181 15.089L48.4243 16.3662C48.4842 16.4008 48.5276 16.4648 48.5276 16.5339V19.0883C48.5276 19.1577 48.4846 19.2216 48.4243 19.2562L46.2181 20.5334C46.1886 20.5502 46.1553 20.5591 46.1214 20.5591C46.0874 20.5591 46.0541 20.5502 46.0246 20.5334L43.8186 19.2562C43.7585 19.2214 43.7153 19.1577 43.7153 19.0883V16.5339C43.7153 16.4647 43.7587 16.4012 43.8186 16.3662L46.0246 15.0892C46.0517 15.0723 46.083 15.0634 46.115 15.0635V15.0633H46.1148Z" fill="#FFFFFF"/>
<path d="M26.8535 9.47694C26.7193 9.47694 26.5866 9.51101 26.4665 9.58022L20.0287 13.283C19.7879 13.4216 19.6416 13.6891 19.6416 13.9667V21.3979C19.6416 21.6758 19.7881 21.9297 20.0287 22.0688L26.4665 25.7843C26.5841 25.8526 26.7176 25.8886 26.8536 25.8886C26.9895 25.8886 27.123 25.8526 27.2406 25.7843L33.6784 22.0688C33.7962 22.001 33.8941 21.9032 33.962 21.7853C34.03 21.6675 34.0656 21.5339 34.0653 21.3979V13.9667C34.0653 13.6888 33.919 13.4216 33.6784 13.283L27.2406 9.58022C27.1229 9.51226 26.9894 9.47662 26.8535 9.47694ZM65.3512 16.1084C65.3256 16.1084 65.2971 16.1084 65.2739 16.1213L64.0354 16.8437C64.0123 16.8566 63.993 16.8752 63.9794 16.8979C63.9658 16.9206 63.9584 16.9464 63.958 16.9728V18.3919C63.958 18.4453 63.9888 18.4943 64.0354 18.521L65.2739 19.2305C65.3204 19.2574 65.3699 19.2574 65.4158 19.2305L66.6543 18.5208C66.6773 18.5079 66.6965 18.4892 66.7101 18.4666C66.7237 18.444 66.7311 18.4183 66.7317 18.3919V16.9726C66.7311 16.9463 66.7237 16.9205 66.7101 16.8979C66.6965 16.8753 66.6773 16.8566 66.6543 16.8437L65.4158 16.1211C65.3928 16.1077 65.377 16.1086 65.3512 16.1086V16.1084Z" fill="#FFFFFF"/>
</g>
<defs>
<clipPath id="clip0_205_7670">
<rect width="91.8079" height="26" fill="white" transform="translate(0.1875 0.080719)"/>
</clipPath>
</defs>
</svg>
