<svg width="100" height="100" viewBox="0 0 69 69" fill="none" xmlns="http://www.w3.org/2000/svg">
<g clip-path="url(#clip0_205_7678)">
<path d="M55.6692 23.5903C54.9503 23.3507 54.2314 23.1244 53.5125 22.9113C53.6323 22.4188 53.7388 21.9262 53.8453 21.4336C55.4828 13.4992 54.4045 7.12239 50.7701 5.01897C47.2688 3.00874 41.5576 5.09885 35.7799 10.1311C35.2074 10.6237 34.6483 11.1429 34.1158 11.6621C33.7563 11.3159 33.3836 10.9698 33.0108 10.637C26.9535 5.2586 20.8829 2.99543 17.2485 5.11216C13.7605 7.13571 12.7221 13.1398 14.1865 20.6482C14.333 21.3937 14.4927 22.1259 14.6791 22.8714C13.8271 23.111 12.9884 23.3773 12.2029 23.6569C5.09391 26.1197 -0.00488281 30.0071 -0.00488281 34.0275C-0.00488281 38.1811 5.42673 42.348 12.8153 44.8774C13.4144 45.0771 14.0135 45.2768 14.6259 45.4499C14.4262 46.2486 14.2531 47.0341 14.0934 47.8462C12.6955 55.2348 13.7872 61.0924 17.2751 63.1026C20.8696 65.1794 26.9136 63.0494 32.7978 57.8973C33.2638 57.4846 33.7297 57.0586 34.1957 56.606C34.7814 57.1784 35.3938 57.7243 36.0062 58.2568C41.7041 63.1559 47.3354 65.1395 50.81 63.1293C54.4045 61.0525 55.576 54.7555 54.0583 47.0874C53.9385 46.5016 53.8054 45.9025 53.6589 45.2901C54.085 45.1703 54.4976 45.0372 54.9103 44.9041C62.5918 42.3613 68.1566 38.2477 68.1566 34.0275C68.1566 29.9937 62.9113 26.0798 55.6692 23.5903ZM37.657 12.2878C42.6093 7.97441 47.2289 6.28369 49.3323 7.49515C51.5821 8.78649 52.4475 14.0051 51.0363 20.8612C50.9431 21.3138 50.8499 21.7531 50.7301 22.1925C47.7747 21.5268 44.7793 21.0476 41.7706 20.7813C40.04 18.3051 38.1496 15.9355 36.0994 13.7122C36.6186 13.2196 37.1245 12.7537 37.657 12.2878ZM20.3504 37.4622C20.9627 38.6337 21.5884 39.792 22.2541 40.9369C22.933 42.0951 23.6253 43.2533 24.3575 44.3849C22.2807 44.1585 20.2172 43.8257 18.1804 43.3864C18.7661 41.4694 19.4983 39.4858 20.3504 37.4622ZM20.3504 30.726C19.5117 28.7423 18.8061 26.7987 18.2203 24.9216C20.1374 24.4956 22.1742 24.1494 24.2909 23.8832C23.5854 24.9881 22.8931 26.1197 22.2408 27.2646C21.5885 28.3962 20.9494 29.5544 20.3504 30.726ZM21.868 34.0941C22.7467 32.2569 23.7052 30.4597 24.717 28.6891C25.7287 26.9185 26.8204 25.2011 27.9653 23.5104C29.9622 23.364 31.999 23.2841 34.0758 23.2841C36.1526 23.2841 38.2028 23.364 40.1864 23.5104C41.318 25.1878 42.3963 26.9052 43.4214 28.6625C44.4465 30.4198 45.405 32.217 46.3103 34.0408C45.4183 35.878 44.4598 37.6885 43.4347 39.4724C42.423 41.243 41.3446 42.9604 40.213 44.6644C38.2294 44.8109 36.1659 44.8774 34.0758 44.8774C31.9857 44.8774 29.9622 44.8109 28.0052 44.6911C26.847 43.0003 25.7554 41.2697 24.7303 39.4991C23.7052 37.7285 22.76 35.9312 21.868 34.0941ZM45.9109 40.9102C46.5899 39.7387 47.2289 38.5539 47.8546 37.3557C48.7066 39.2861 49.4521 41.243 50.1044 43.2533C48.0409 43.7192 45.9508 44.0787 43.8474 44.3183C44.5663 43.2 45.2453 42.0551 45.9109 40.9102ZM47.8279 30.726C47.2022 29.5544 46.5632 28.3829 45.8976 27.238C45.2453 26.1064 44.5663 24.9881 43.8607 23.8832C46.0041 24.1494 48.0543 24.5089 49.9713 24.9482C49.3589 26.9185 48.64 28.8355 47.8279 30.726ZM34.1025 15.7491C35.5003 17.2667 36.8183 18.8643 38.043 20.5151C35.4071 20.3952 32.7579 20.3952 30.1219 20.5151C31.4266 18.7977 32.7712 17.2002 34.1025 15.7491ZM18.6596 7.58834C20.8962 6.28369 25.8619 8.14748 31.0938 12.7803C31.4266 13.0732 31.7594 13.3927 32.1055 13.7122C30.0421 15.9355 28.1383 18.3051 26.3944 20.7813C23.3857 21.0476 20.4036 21.5135 17.4482 22.1658C17.2751 21.4869 17.1287 20.7946 16.9822 20.1024C15.7308 13.659 16.5562 8.7998 18.6596 7.58834ZM15.398 42.6808C14.8389 42.5211 14.293 42.348 13.7472 42.1616C10.9116 41.2697 7.68991 39.8585 5.36017 38.008C4.01558 37.0761 3.11031 35.6384 2.85737 34.0275C2.85737 31.5913 7.0642 28.4761 13.1348 26.3594C13.8937 26.0931 14.6658 25.8535 15.4379 25.6272C16.3432 28.516 17.4349 31.3517 18.6996 34.0941C17.4215 36.8765 16.3166 39.752 15.398 42.6808ZM30.9207 55.7274C28.7241 57.7376 26.1814 59.3351 23.4123 60.4268C21.9346 61.1323 20.2305 61.1989 18.7129 60.5998C16.5962 59.3751 15.7175 54.6756 16.9157 48.3521C17.0621 47.6066 17.2219 46.861 17.4082 46.1288C20.3903 46.7678 23.399 47.2072 26.4476 47.4335C28.2049 49.923 30.1353 52.306 32.1987 54.5425C31.7727 54.9552 31.3467 55.3546 30.9207 55.7274ZM34.1823 52.4923C32.8244 51.0279 31.4665 49.4038 30.1486 47.6598C31.4266 47.7131 32.7446 47.7397 34.0758 47.7397C35.4471 47.7397 36.7916 47.7131 38.1229 47.6465C36.8981 49.3372 35.5802 50.9481 34.1823 52.4923ZM51.5821 56.4862C51.4623 58.1103 50.6636 59.628 49.3855 60.6531C47.2688 61.8779 42.7558 60.2803 37.8833 56.1001C37.3242 55.6208 36.765 55.1016 36.1926 54.5691C38.2294 52.3193 40.1065 49.9363 41.8106 47.4335C44.8592 47.1805 47.8945 46.7146 50.8899 46.0356C51.023 46.5815 51.1428 47.1273 51.2493 47.6598C51.9017 50.5354 52.0082 53.5307 51.5821 56.4862ZM54.0051 42.1749C53.6323 42.2948 53.2596 42.4146 52.8735 42.5211C51.9416 39.6189 50.7967 36.7833 49.4787 34.0275C50.7568 31.3117 51.8351 28.516 52.7404 25.6538C53.4326 25.8535 54.0983 26.0665 54.7373 26.2795C60.941 28.4095 65.2943 31.578 65.2943 34.0009C65.2943 36.6102 60.6482 39.9783 54.0051 42.1749ZM34.0758 27.9835C37.444 27.9835 40.1731 30.7126 40.1731 34.0808C40.1731 37.4489 37.444 40.178 34.0758 40.178C30.7077 40.178 27.9786 37.4489 27.9786 34.0808C27.9786 30.7126 30.7077 27.9835 34.0758 27.9835Z" fill="#FFFFFF"/>
</g>
<defs>
<clipPath id="clip0_205_7678">
<rect width="68.1614" height="68.1614" fill="white" transform="translate(-0.00488281)"/>
</clipPath>
</defs>
</svg>
